<svg width="37" height="37" viewBox="0 0 37 37" fill="none" xmlns="http://www.w3.org/2000/svg">
<path d="M12.3334 3.05176e-05C7.22475 3.05176e-05 3.08337 4.14141 3.08337 9.25003V16.0334C3.08607 18.4162 5.01716 20.3473 7.40004 20.35H8.01671V19.1167H7.40004C5.69804 19.1147 4.31871 17.7354 4.31671 16.0334V9.25003C4.31671 4.82252 7.90586 1.23336 12.3334 1.23336C16.7609 1.23336 20.35 4.82252 20.35 9.25003V16.0334C20.348 17.7354 18.9687 19.1147 17.2667 19.1167H16.65V20.35H17.2667C19.6496 20.3473 21.5807 18.4162 21.5834 16.0334V9.25003C21.5834 4.14141 17.442 3.05176e-05 12.3334 3.05176e-05Z" fill="url(#paint0_angular)"/>
<path d="M5.08191 29.0629L5.53269 28.3531L4.49114 27.6921L4.04036 28.4025C2.67698 30.5509 2.7782 33.3173 4.29504 35.3603V37H5.52837V35.15C5.52845 35.01 5.48081 34.874 5.39332 34.7646C4.08229 33.1257 3.95718 30.8349 5.08191 29.0629Z" fill="url(#paint1_angular)"/>
<path d="M33.9167 3.05176e-05H25.9C24.198 0.00203468 22.8187 1.38136 22.8167 3.08336V9.25003C22.8187 10.952 24.198 12.3314 25.9 12.3334H27.1333V14.8C27.1332 15.0494 27.2834 15.2743 27.5138 15.3698C27.5886 15.401 27.6689 15.4169 27.75 15.4167C27.9136 15.4167 28.0703 15.3516 28.186 15.236L31.0886 12.3334H33.9167C35.6187 12.3314 36.998 10.952 37 9.25003V3.08336C36.998 1.38136 35.6187 0.00203468 33.9167 3.05176e-05ZM35.7667 9.25003C35.7667 10.2718 34.9384 11.1 33.9167 11.1H30.8333C30.6697 11.1 30.513 11.1651 30.3973 11.2807L28.3667 13.3114V11.7167C28.3667 11.3761 28.0905 11.1 27.75 11.1H25.9C24.8782 11.1 24.05 10.2718 24.05 9.25003V3.08336C24.05 2.06162 24.8782 1.23336 25.9 1.23336H33.9167C34.9384 1.23336 35.7667 2.06162 35.7667 3.08336V9.25003Z" fill="url(#paint2_angular)"/>
<path d="M30.2167 3.08336H25.9V4.31669H30.2167V3.08336Z" fill="url(#paint3_angular)"/>
<path d="M33.9166 3.08336H31.45V4.31669H33.9166V3.08336Z" fill="url(#paint4_angular)"/>
<path d="M33.9167 5.55003H25.9V6.78337H33.9167V5.55003Z" fill="url(#paint5_angular)"/>
<path d="M30.2167 8.01669H25.9V9.25003H30.2167V8.01669Z" fill="url(#paint6_angular)"/>
<path d="M20.6262 28.4025L20.1755 27.6921L19.1339 28.3531L19.5847 29.0635C20.7095 30.8353 20.5844 33.1259 19.2733 34.7646C19.1858 34.874 19.1382 35.01 19.1382 35.15V37H20.3716V35.3603C21.8884 33.3173 21.9896 30.5509 20.6262 28.4025Z" fill="url(#paint7_angular)"/>
<path d="M36.3833 20.9667H30.8333C28.5196 20.9694 26.6195 22.7958 26.5253 25.1076L24.6667 28.4536V25.9C24.664 23.5172 22.7329 21.5861 20.35 21.5834H18.0961L18.0794 21.5704L18.0683 21.5834H16.65C15.9688 21.5834 15.4167 21.0312 15.4167 20.35V18.899C17.3221 17.7989 18.4971 15.7669 18.5 13.5667V8.63337C18.4991 7.61163 18.2449 6.60608 17.76 5.70667C17.6047 5.42054 17.2536 5.30437 16.9583 5.4415L6.52063 10.3526C6.30449 10.4544 6.16659 10.6718 6.16667 10.9107V13.5667C6.1696 15.7669 7.34458 17.7989 9.25 18.899V20.35C9.25 21.0312 8.69785 21.5834 8.01667 21.5834H4.31667C1.93379 21.5861 0.00269792 23.5172 0 25.9V37H1.23333V25.9C1.23534 24.198 2.61467 22.8187 4.31667 22.8167H6.2789L11.832 30.5756C11.9461 30.7351 12.1292 30.8307 12.3253 30.8334H12.3333C12.5274 30.8334 12.7102 30.7419 12.8267 30.5867L18.685 22.8167H20.35C22.052 22.8187 23.4313 24.198 23.4333 25.9V30.8334C23.4336 31.1739 23.71 31.4498 24.0505 31.4495C24.2742 31.4493 24.4803 31.328 24.589 31.1325L27.4959 25.9H31.0313L25.0188 37H26.4217L32.4367 25.9H32.6833C35.0662 25.8973 36.9973 23.9662 37 21.5834C37 21.2428 36.7239 20.9667 36.3833 20.9667ZM7.4 13.5667V11.3023L16.9219 6.8216C17.1497 7.39849 17.2667 8.01316 17.2667 8.63337V13.5667C17.2667 16.2913 15.0579 18.5 12.3333 18.5C9.60875 18.5 7.4 16.2913 7.4 13.5667ZM12.3463 29.1758L10.4432 26.5167H14.3505L12.3463 29.1758ZM15.2835 25.2834H9.55833L7.79282 22.8167H8.01667C9.37896 22.8167 10.4833 21.7123 10.4833 20.35V19.4491C11.6875 19.8281 12.9791 19.8281 14.1833 19.4491V20.35C14.1833 21.7123 15.2877 22.8167 16.65 22.8167H17.1433L15.2835 25.2834ZM32.6833 24.6667H27.8117C28.1065 23.232 29.3686 22.2017 30.8333 22.2H35.705C35.4102 23.6348 34.1481 24.6651 32.6833 24.6667Z" fill="url(#paint8_angular)"/>
<defs>
<radialGradient id="paint0_angular" cx="0" cy="0" r="1" gradientUnits="userSpaceOnUse" gradientTransform="translate(12.3334 10.175) rotate(90) scale(10.175 9.25)">
<stop stop-color="#E60000"/>
<stop offset="1" stop-color="#4F0404"/>
</radialGradient>
<radialGradient id="paint1_angular" cx="0" cy="0" r="1" gradientUnits="userSpaceOnUse" gradientTransform="translate(4.30809 32.3461) rotate(90) scale(4.65398 1.2246)">
<stop stop-color="#E60000"/>
<stop offset="1" stop-color="#4F0404"/>
</radialGradient>
<radialGradient id="paint2_angular" cx="0" cy="0" r="1" gradientUnits="userSpaceOnUse" gradientTransform="translate(29.9083 7.70836) rotate(90) scale(7.70833 7.09167)">
<stop stop-color="#E60000"/>
<stop offset="1" stop-color="#4F0404"/>
</radialGradient>
<radialGradient id="paint3_angular" cx="0" cy="0" r="1" gradientUnits="userSpaceOnUse" gradientTransform="translate(28.0584 3.70003) rotate(90) scale(0.616667 2.15833)">
<stop stop-color="#E60000"/>
<stop offset="1" stop-color="#4F0404"/>
</radialGradient>
<radialGradient id="paint4_angular" cx="0" cy="0" r="1" gradientUnits="userSpaceOnUse" gradientTransform="translate(32.6833 3.70003) rotate(90) scale(0.616667 1.23333)">
<stop stop-color="#E60000"/>
<stop offset="1" stop-color="#4F0404"/>
</radialGradient>
<radialGradient id="paint5_angular" cx="0" cy="0" r="1" gradientUnits="userSpaceOnUse" gradientTransform="translate(29.9084 6.1667) rotate(90) scale(0.616667 4.00833)">
<stop stop-color="#E60000"/>
<stop offset="1" stop-color="#4F0404"/>
</radialGradient>
<radialGradient id="paint6_angular" cx="0" cy="0" r="1" gradientUnits="userSpaceOnUse" gradientTransform="translate(28.0584 8.63336) rotate(90) scale(0.616667 2.15833)">
<stop stop-color="#E60000"/>
<stop offset="1" stop-color="#4F0404"/>
</radialGradient>
<radialGradient id="paint7_angular" cx="0" cy="0" r="1" gradientUnits="userSpaceOnUse" gradientTransform="translate(20.3585 32.3461) rotate(90) scale(4.65398 1.2246)">
<stop stop-color="#E60000"/>
<stop offset="1" stop-color="#4F0404"/>
</radialGradient>
<radialGradient id="paint8_angular" cx="0" cy="0" r="1" gradientUnits="userSpaceOnUse" gradientTransform="translate(18.5 21.192) rotate(90) scale(15.808 18.5)">
<stop stop-color="#E60000"/>
<stop offset="1" stop-color="#4F0404"/>
</radialGradient>
</defs>
</svg>
