<svg width="50" height="8" viewBox="0 0 50 8" fill="none" xmlns="http://www.w3.org/2000/svg">
<path d="M45.4666 1.06873C45.2499 1.28701 45.2508 1.63994 45.4686 1.85711L47.4205 3.80354H0.582644C0.275225 3.80354 0.0262299 4.05305 0.0262299 4.3611C0.0262299 4.66915 0.275225 4.91866 0.582644 4.91866H47.4205L45.4686 6.86509C45.2508 7.08226 45.2499 7.43519 45.4666 7.65347C45.6834 7.87176 46.0359 7.87259 46.2537 7.65542L49.161 4.75613C49.1612 4.75585 49.1612 4.75585 49.1615 4.75557C49.3788 4.5384 49.3794 4.18407 49.1615 3.96635C49.1612 3.96607 49.1612 3.96607 49.161 3.96579L46.2537 1.0665C46.0359 0.849606 45.6834 0.850443 45.4666 1.06873Z" fill="black"/>
</svg>
