<svg width="37" height="6" viewBox="0 0 37 6" fill="none" xmlns="http://www.w3.org/2000/svg">
<path d="M34.0802 0.788514C33.9177 0.952226 33.9183 1.21693 34.0817 1.3798L35.5456 2.83963H0.41725C0.186686 2.83963 -6.10352e-05 3.02676 -6.10352e-05 3.25779C-6.10352e-05 3.48883 0.186686 3.67596 0.41725 3.67596H35.5456L34.0817 5.13578C33.9183 5.29866 33.9177 5.56336 34.0802 5.72707C34.2428 5.89079 34.5072 5.89141 34.6705 5.72854L36.851 3.55407C36.8512 3.55386 36.8512 3.55386 36.8514 3.55365C37.0144 3.39077 37.0148 3.12503 36.8514 2.96173C36.8512 2.96152 36.8512 2.96152 36.851 2.96131L34.6705 0.786841C34.5072 0.624173 34.2428 0.624801 34.0802 0.788514Z" fill="#2CB34A"/>
</svg>
