<svg width="15" height="16" viewBox="0 0 15 16" fill="none" xmlns="http://www.w3.org/2000/svg">
<path d="M7.44141 0.521973C3.34475 0.521973 0.0237427 3.84298 0.0237427 7.93964C0.0237427 12.0363 3.34475 15.3573 7.44141 15.3573C11.5381 15.3573 14.8591 12.0363 14.8591 7.93964C14.8591 3.84298 11.5381 0.521973 7.44141 0.521973ZM10.318 8.20221C10.3178 8.20239 10.3178 8.20239 10.3176 8.20258L8.37986 10.131C8.23467 10.2755 7.99992 10.2749 7.85547 10.1297C7.71102 9.98454 7.71158 9.74979 7.85677 9.60534L9.15773 8.31068H4.82688C4.62198 8.31068 4.45602 8.14472 4.45602 7.93983C4.45602 7.73493 4.62198 7.56897 4.82688 7.56897H9.15773L7.85677 6.27431C7.71158 6.12987 7.71102 5.89493 7.85547 5.74992C7.99992 5.60473 8.23486 5.60418 8.38005 5.74863L10.3178 7.67708C10.318 7.67726 10.318 7.67726 10.3181 7.67745C10.4633 7.82208 10.4628 8.05776 10.318 8.20221Z" fill="white"/>
</svg>
