<svg width="18" height="29" viewBox="0 0 18 29" fill="none" xmlns="http://www.w3.org/2000/svg">
<path d="M7.29685 0C3.27313 0 0 3.25577 0 7.2574V21.7426C0 25.7442 3.27313 29 7.29685 29H10.7031C14.7269 29 18 25.7442 18 21.7426C18 19.5146 18 8.77947 18 7.2574C18 3.25577 14.7269 0 10.7031 0H7.29685ZM10.7031 26.7802H7.29685C4.50428 26.7802 2.23168 24.5204 2.23168 21.7426V12.7426C2.8692 13.1022 3.60565 13.3087 4.38972 13.3087H13.6095C14.3936 13.3087 15.1301 13.1022 15.7676 12.7426V21.7426C15.7683 24.5204 13.4957 26.7802 10.7031 26.7802ZM15.7683 7.2574V8.94226C15.7683 10.1254 14.8005 11.0888 13.6103 11.0888H4.38972C3.19949 11.0888 2.23168 10.1262 2.23168 8.94226V7.2574C2.23168 4.47964 4.50428 2.21984 7.29685 2.21984H10.7031C13.4957 2.21984 15.7683 4.47964 15.7683 7.2574ZM8.99963 4.43968C8.38294 4.43968 7.88379 4.93693 7.88379 5.5496V7.75982C7.88379 8.3725 8.38368 8.86974 8.99963 8.86974C9.61557 8.86974 10.1155 8.3725 10.1155 7.75982V5.5496C10.1155 4.93693 9.61632 4.43968 8.99963 4.43968Z" fill="white"/>
</svg>
