<svg width="18" height="18" viewBox="0 0 18 18" fill="none" xmlns="http://www.w3.org/2000/svg">
<path d="M4.97004 4.09641C4.71059 3.8366 4.28941 3.8366 4.02961 4.09641C3.06563 5.06039 2.59207 6.40301 2.72988 7.78043C2.76434 8.12355 3.05332 8.37949 3.39082 8.37949C3.41297 8.37949 3.43547 8.37844 3.45762 8.37598C3.82324 8.33941 4.08973 8.01316 4.05316 7.64789C3.95508 6.66879 4.28941 5.71711 4.97004 5.03648C5.22984 4.77703 5.22984 4.35586 4.97004 4.09641ZM7.60359 0C3.41086 0 0 3.41086 0 7.60359C0 11.7963 3.41086 15.2072 7.60359 15.2072C11.7963 15.2072 15.2072 11.7963 15.2072 7.60359C15.2072 3.41086 11.796 0 7.60359 0ZM7.60359 13.8769C4.14422 13.8769 1.33031 11.0626 1.33031 7.60359C1.33031 4.14457 4.14422 1.32996 7.60359 1.32996C11.0626 1.32996 13.8769 4.14422 13.8769 7.60324C13.8769 11.0623 11.0626 13.8769 7.60359 13.8769ZM17.8052 16.8648L12.9727 12.0322C12.7129 11.7724 12.292 11.7724 12.0322 12.0322C11.7724 12.2917 11.7724 12.7129 12.0322 12.9727L16.8648 17.8052C16.9949 17.9353 17.1647 18 17.3348 18C17.505 18 17.6752 17.935 17.8049 17.8052C18.065 17.5454 18.065 17.1243 17.8052 16.8648Z" fill="#767676"/>
</svg>
