<?xml version="1.0" encoding="utf-8"?>
<!-- Generator: Adobe Illustrator 25.3.1, SVG Export Plug-In . SVG Version: 6.00 Build 0)  -->
<svg version="1.1" id="Layer_1" xmlns="http://www.w3.org/2000/svg" xmlns:xlink="http://www.w3.org/1999/xlink" x="0px" y="0px"
	 viewBox="0 0 79 73" style="enable-background:new 0 0 79 73;" xml:space="preserve">
<style type="text/css">
	.st0{fill:#FFFFFF;}
</style>
<path class="st0" d="M27.9,63.7c2.9,2.6,6,5.4,9.3,8.4c1.3,1.2,3.3,1.2,4.6,0c3.3-3,6.4-5.8,9.3-8.4C67.9,48.7,79,38.9,79,24.2
	C79,10.4,69.8,0,57.5,0c-7.1,0.1-13.7,3.4-18,9.1c-4.3-5.7-11-9-18-9.1C9.2,0,0,10.4,0,24.2C0,38.9,11.1,48.7,27.9,63.7z M21.5,7
	c6.4,0.3,12.1,4.1,14.9,9.9c0.6,1.2,1.8,2,3.1,2c1.3,0,2.5-0.8,3.1-2c2.8-5.8,8.6-9.6,14.9-9.9c8.3,0,14.6,7.4,14.6,17.2
	c0,11.6-9.6,20.1-25.5,34.3c-2.3,2-4.6,4.1-7.1,6.4c-2.5-2.2-4.8-4.3-7.1-6.4C16.5,44.3,6.9,35.7,6.9,24.2C6.9,14.4,13.1,7,21.5,7z"
	/>
</svg>
