<svg width="79" height="73" viewBox="0 0 79 73" fill="none" xmlns="http://www.w3.org/2000/svg">
<path d="M27.8696 63.7039C30.7998 66.3233 33.9192 69.0974 37.1956 72.1038C38.5038 73.3015 40.4962 73.3015 41.8044 72.1038C45.0808 69.1015 48.2002 66.3233 51.1304 63.7039C67.9109 48.7373 79 38.8546 79 24.1568C79 10.3878 69.7705 0 57.5303 0C50.4582 0.0651786 43.8088 3.41373 39.498 9.08426C35.1871 3.41373 28.5377 0.0651786 21.4657 0C9.22948 0 0 10.3878 0 24.1609C0 38.8546 11.0891 48.7414 27.8696 63.7039ZM21.4657 6.95374C27.8494 7.27556 33.565 11.0641 36.4067 16.8609C36.9783 18.0667 38.1778 18.8325 39.498 18.8366C40.8182 18.8366 42.0177 18.0708 42.5892 16.865C45.4309 11.0681 51.1465 7.27963 57.5303 6.95374C65.8541 6.95374 72.1292 14.3515 72.1292 24.1609C72.1292 35.7138 62.5133 44.2888 46.5902 58.4937C44.3321 60.5061 41.9654 62.6162 39.502 64.8527C37.0346 62.6162 34.6679 60.5061 32.4139 58.4937C16.4907 44.2888 6.87481 35.7138 6.87481 24.1609C6.87079 14.3515 13.1459 6.95374 21.4657 6.95374Z" fill="black"/>
</svg>
