<?xml version="1.0" encoding="utf-8"?>
<!-- Generator: Adobe Illustrator 25.3.1, SVG Export Plug-In . SVG Version: 6.00 Build 0)  -->
<svg version="1.1" id="Layer_1" xmlns="http://www.w3.org/2000/svg" xmlns:xlink="http://www.w3.org/1999/xlink" x="0px" y="0px"
	 viewBox="0 0 76 76" style="enable-background:new 0 0 76 76;" xml:space="preserve">
<style type="text/css">
	.st0{fill:#FFFFFF;}
</style>
<path class="st0" d="M31.6,16.1c0.5,1.5,1.5,2.7,2.8,3.4v0.7l-4.9,1.9c-0.5,0.2-4.3,1.7-4.3,6.6V33c0,0.7,0.5,1.2,1.2,1.2h3
	c0.7,0,1.2-0.5,1.2-1.2s-0.5-1.2-1.2-1.2h-1.8v-3.1c0-3.3,2.6-4.3,2.7-4.3c0,0,0,0,0.1,0l4.5-1.8l2.4,2.3c0.2,0.2,0.5,0.3,0.8,0.3
	c0,0,0,0,0,0c0.3,0,0.6-0.1,0.8-0.4l2.3-2.3l4.5,1.8c0,0,0,0,0.1,0c0,0,2.7,0.9,2.7,4.3v3.1h-6.7h-7.4h-1.1c-0.7,0-1.2,0.5-1.2,1.2
	s0.5,1.2,1.2,1.2h1.1h7.4h7.9c0.7,0,1.2-0.5,1.2-1.2v-4.3c0-4.9-3.8-6.4-4.3-6.6l-4.8-1.9v-0.7c1.3-0.8,2.3-2,2.8-3.4
	c1.7-0.1,3.1-1.6,3.1-3.4c0-1.1-0.5-2-1.2-2.6V8c0-4.4-3.6-8-8-8h-0.6c-4.4,0-8,3.6-8,8v2.1c-0.8,0.6-1.3,1.6-1.3,2.6
	C28.4,14.6,29.8,16,31.6,16.1z M44.8,12.1c0,0,0.1,0,0.1,0c0.2,0.2,0.3,0.4,0.3,0.7c0,0.3-0.2,0.6-0.4,0.8V12.1z M39.3,21L38,22.4
	l-1.2-1.2v-0.8c0.2,0,0.5,0,0.7,0h1.1c0.2,0,0.5,0,0.7,0V21z M42.4,14.2c0,2.1-1.7,3.8-3.8,3.8h-1.1c-2.1,0-3.8-1.7-3.8-3.8v-3.1
	c1.6-0.2,4.3-0.7,6.4-2.5c0.5,0.8,1.2,1.7,2.3,2.2V14.2z M32.1,8c0-3.1,2.5-5.6,5.6-5.6h0.6c3.1,0,5.6,2.5,5.6,5.6v0.8
	c0,0,0,0-0.1,0c0,0,0,0,0,0c-1.7-0.4-2.2-2.6-2.2-2.6c-0.1-0.5-0.5-0.8-0.9-0.9c-0.5-0.1-0.9,0.1-1.2,0.5c-2.2,3-7,3-7,3
	c0,0,0,0,0,0c0,0-0.1,0-0.1,0c0,0,0,0,0,0c0,0-0.1,0-0.1,0c0,0,0,0,0,0c0,0,0,0-0.1,0c0,0,0,0,0,0L32.1,8z M31.1,12.1
	c0.1,0,0.1,0,0.2,0v1.5c-0.3-0.2-0.4-0.5-0.4-0.8C30.8,12.5,30.9,12.3,31.1,12.1z"/>
<path class="st0" d="M49,4.2c7.8,2.5,14.5,7.7,18.9,14.6c0.2,0.4,0.6,0.6,1,0.6c0.2,0,0.4-0.1,0.6-0.2c0.6-0.4,0.7-1.1,0.4-1.7
	C65.2,10.1,58.1,4.6,49.8,1.9c-0.6-0.2-1.3,0.1-1.5,0.8C48.1,3.3,48.4,4,49,4.2z"/>
<path class="st0" d="M6.3,19.2c0.2,0.1,0.4,0.2,0.6,0.2c0.4,0,0.8-0.2,1-0.6c4.5-7,11.3-12.2,19.1-14.7c0.6-0.2,1-0.9,0.8-1.5
	c-0.2-0.6-0.9-1-1.5-0.8C18,4.5,10.7,10.1,5.9,17.5C5.6,18.1,5.7,18.8,6.3,19.2z"/>
<path class="st0" d="M23.1,70.4C16.9,67.5,11.7,63,8,57.2c-0.4-0.6-1.1-0.7-1.7-0.4c-0.6,0.4-0.7,1.1-0.4,1.7
	c3.9,6.1,9.5,11,16.2,14.1c0.2,0.1,0.3,0.1,0.5,0.1c0.5,0,0.9-0.3,1.1-0.7C24,71.3,23.7,70.6,23.1,70.4z"/>
<path class="st0" d="M69.6,56.8c-0.6-0.4-1.3-0.2-1.7,0.4c-3.6,5.7-8.8,10.2-14.9,13.1c-0.6,0.3-0.9,1-0.6,1.6
	c0.2,0.4,0.6,0.7,1.1,0.7c0.2,0,0.3,0,0.5-0.1c6.5-3.1,12-7.9,15.9-13.9C70.3,57.9,70.1,57.2,69.6,56.8z"/>
<path class="st0" d="M25.6,53.9v-4.3c0-4.9-3.8-6.4-4.3-6.6l-4.8-1.9v-0.7c1.3-0.8,2.3-2,2.8-3.4c1.7-0.1,3.1-1.6,3.1-3.4
	c0-1.1-0.5-2-1.2-2.6v-2.1c0-4.4-3.6-8-8-8h-0.6c-4.4,0-8,3.6-8,8V31c-0.8,0.6-1.3,1.6-1.3,2.6c0,1.8,1.4,3.2,3.1,3.4
	c0.5,1.5,1.5,2.7,2.8,3.4v0.7l-4.9,1.9C3.8,43.2,0,44.8,0,49.6v4.3c0,0.7,0.5,1.2,1.2,1.2h3c0.7,0,1.2-0.5,1.2-1.2
	c0-0.7-0.5-1.2-1.2-1.2H2.4v-3.1c0-3.3,2.6-4.3,2.7-4.3c0,0,0,0,0.1,0l4.5-1.8l2.4,2.3c0.2,0.2,0.5,0.3,0.8,0.3c0,0,0,0,0,0
	c0.3,0,0.6-0.1,0.8-0.4l2.3-2.3l4.5,1.8c0,0,0,0,0.1,0c0.1,0,2.7,1,2.7,4.3v3.1h-6.7H9.1H8.1c-0.7,0-1.2,0.5-1.2,1.2
	c0,0.7,0.5,1.2,1.2,1.2h1.1h7.4h7.9C25.1,55.1,25.6,54.6,25.6,53.9z M19.6,33c0,0,0.1,0,0.1,0c0.2,0.2,0.3,0.4,0.3,0.7
	c0,0.3-0.2,0.6-0.4,0.8V33z M6.1,34.5c-0.3-0.2-0.4-0.5-0.4-0.8c0-0.2,0.1-0.5,0.2-0.6c0.1,0,0.1,0,0.2,0V34.5z M7.3,29.6
	C7.3,29.6,7.3,29.6,7.3,29.6c0,0-0.1,0-0.1,0c0,0,0,0,0,0c0,0-0.1,0-0.1,0c0,0,0,0,0,0c0,0,0,0-0.1,0c0,0,0,0,0,0v-0.8
	c0-3.1,2.5-5.6,5.6-5.6h0.6c3.1,0,5.6,2.5,5.6,5.6v0.8c0,0,0,0-0.1,0c0,0,0,0,0,0c-1.7-0.4-2.2-2.6-2.2-2.6
	c-0.1-0.5-0.5-0.8-0.9-0.9c-0.5-0.1-0.9,0.1-1.2,0.5C12.2,29.6,7.4,29.6,7.3,29.6z M14.2,41.9l-1.3,1.4l-1.2-1.2v-0.8
	c0.2,0,0.5,0,0.7,0h1.1c0.2,0,0.5,0,0.7,0C14.2,41.3,14.2,41.9,14.2,41.9z M13.4,38.9h-1.1c-2.1,0-3.8-1.7-3.8-3.8V32
	c1.6-0.2,4.3-0.7,6.4-2.5c0.5,0.8,1.2,1.7,2.3,2.2v3.4C17.2,37.2,15.5,38.9,13.4,38.9z"/>
<path class="st0" d="M71.7,43.1l-4.8-1.9v-0.7c1.3-0.8,2.3-2,2.8-3.4c1.7-0.1,3.1-1.6,3.1-3.4c0-1.1-0.5-2-1.2-2.6v-2.1
	c0-4.4-3.6-8-8-8H63c-4.4,0-8,3.6-8,8V31c-0.8,0.6-1.3,1.6-1.3,2.6c0,1.8,1.4,3.2,3.1,3.4c0.5,1.5,1.5,2.7,2.8,3.4v0.7l-4.9,1.9
	c-0.5,0.2-4.3,1.7-4.3,6.6v4.3c0,0.7,0.5,1.2,1.2,1.2h3c0.7,0,1.2-0.5,1.2-1.2c0-0.7-0.5-1.2-1.2-1.2h-1.8v-3.1
	c0-3.3,2.6-4.3,2.7-4.3c0,0,0,0,0.1,0l4.5-1.8l2.4,2.3c0.2,0.2,0.5,0.3,0.8,0.3c0,0,0,0,0,0c0.3,0,0.6-0.1,0.8-0.4l2.3-2.3l4.5,1.8
	c0,0,0,0,0.1,0c0.1,0,2.7,1,2.7,4.3v3.1h-6.7h-7.4h-1.1c-0.7,0-1.2,0.5-1.2,1.2c0,0.7,0.5,1.2,1.2,1.2h1.1h7.4h7.9
	c0.7,0,1.2-0.5,1.2-1.2v-4.3C76,44.8,72.2,43.2,71.7,43.1z M70,33c0,0,0.1,0,0.1,0c0.2,0.2,0.3,0.4,0.3,0.7c0,0.3-0.2,0.6-0.4,0.8
	V33z M56.5,34.5C56.2,34.3,56,34,56,33.7c0-0.2,0.1-0.5,0.2-0.6c0.1,0,0.1,0,0.2,0L56.5,34.5L56.5,34.5z M57.7,29.6
	C57.7,29.6,57.7,29.6,57.7,29.6c0,0-0.1,0-0.1,0c0,0,0,0,0,0c0,0-0.1,0-0.1,0c0,0,0,0,0,0c0,0,0,0-0.1,0c0,0,0,0,0,0v-0.8
	c0-3.1,2.5-5.6,5.6-5.6h0.6c3.1,0,5.6,2.5,5.6,5.6v0.8c0,0,0,0-0.1,0c0,0,0,0,0,0c-1.7-0.4-2.2-2.6-2.2-2.6
	c-0.1-0.5-0.5-0.8-0.9-0.9c-0.5-0.1-0.9,0.1-1.2,0.5C62.6,29.6,57.8,29.6,57.7,29.6z M64.5,41.9l-1.3,1.4L62,42.1v-0.8
	c0.2,0,0.5,0,0.7,0h1.1c0.2,0,0.5,0,0.7,0V41.9z M63.8,38.9h-1.1c-2.1,0-3.8-1.7-3.8-3.8V32c1.6-0.2,4.3-0.7,6.4-2.5
	c0.5,0.8,1.2,1.7,2.3,2.2v3.4C67.6,37.2,65.9,38.9,63.8,38.9z"/>
<path class="st0" d="M46.5,63.9L41.7,62v-0.7c1.3-0.8,2.3-2,2.8-3.4c1.7-0.1,3.1-1.6,3.1-3.4c0-1.1-0.5-2-1.2-2.6v-2.1
	c0-4.4-3.6-8-8-8h-0.6c-4.4,0-8,3.6-8,8v2.1c-0.8,0.6-1.3,1.6-1.3,2.6c0,1.8,1.4,3.2,3.1,3.4c0.5,1.5,1.5,2.7,2.8,3.4V62l-4.9,1.9
	c-0.5,0.2-4.3,1.7-4.3,6.6v4.3c0,0.7,0.5,1.2,1.2,1.2h3c0.7,0,1.2-0.5,1.2-1.2c0-0.7-0.5-1.2-1.2-1.2h-1.8v-3.1
	c0-3.3,2.6-4.3,2.7-4.3c0,0,0,0,0.1,0l4.5-1.8l2.4,2.3c0.2,0.2,0.5,0.3,0.8,0.3c0,0,0,0,0,0c0.3,0,0.6-0.1,0.8-0.4l2.3-2.3l4.5,1.8
	c0,0,0,0,0.1,0c0.1,0,2.7,1,2.7,4.3v3.1h-6.7h-7.4h-1.1c-0.7,0-1.2,0.5-1.2,1.2c0,0.7,0.5,1.2,1.2,1.2h1.1h7.4h7.9
	c0.7,0,1.2-0.5,1.2-1.2v-4.3C50.8,65.7,47,64.1,46.5,63.9z M44.8,53.9c0,0,0.1,0,0.1,0c0.2,0.2,0.3,0.4,0.3,0.7
	c0,0.3-0.2,0.6-0.4,0.8V53.9z M31.3,55.4c-0.3-0.2-0.4-0.5-0.4-0.8c0-0.2,0.1-0.5,0.2-0.6c0.1,0,0.1,0,0.2,0V55.4z M32.5,50.5
	C32.5,50.5,32.5,50.5,32.5,50.5c0,0-0.1,0-0.1,0c0,0,0,0,0,0c0,0-0.1,0-0.1,0c0,0,0,0-0.1,0c0,0,0,0-0.1,0c0,0,0,0,0,0v-0.8
	c0-3.1,2.5-5.6,5.6-5.6h0.6c3.1,0,5.6,2.5,5.6,5.6v0.8c0,0,0,0-0.1,0c0,0,0,0,0,0c-1.7-0.4-2.2-2.6-2.2-2.6
	c-0.1-0.5-0.5-0.8-0.9-0.9c-0.5-0.1-0.9,0.1-1.2,0.5C37.3,50.5,32.5,50.5,32.5,50.5z M39.3,62.8L38,64.2L36.7,63v-0.8
	c0.2,0,0.5,0,0.7,0h1.1c0.2,0,0.5,0,0.7,0V62.8z M38.6,59.8h-1.1c-2.1,0-3.8-1.7-3.8-3.8v-3.1c1.6-0.2,4.3-0.7,6.4-2.5
	c0.5,0.8,1.2,1.7,2.3,2.2V56C42.4,58.1,40.7,59.8,38.6,59.8z"/>
</svg>
