<svg width="76" height="76" viewBox="0 0 76 76" fill="none" xmlns="http://www.w3.org/2000/svg">
<path d="M31.5605 16.1485C32.0355 17.6017 33.0331 18.8204 34.3305 19.5819V20.2439L29.4214 22.1662C28.9687 22.3295 25.127 23.8628 25.127 28.7464V33.0214C25.127 33.6834 25.6643 34.2223 26.3264 34.2223H29.3754C30.039 34.2223 30.5749 33.6849 30.5749 33.0229C30.5749 32.3609 30.0375 31.8235 29.3754 31.8235H27.5258V28.7479C27.5258 25.4273 30.1221 24.4655 30.223 24.4284C30.2409 24.4224 30.2602 24.415 30.278 24.4076L34.7728 22.6471L37.1613 24.9716C37.3854 25.1898 37.6868 25.3116 37.9985 25.3116C38.0044 25.3116 38.0104 25.3116 38.0178 25.3116C38.337 25.3071 38.6413 25.1735 38.8624 24.9449L41.1188 22.6055L45.6033 24.4046C45.624 24.4135 45.6463 24.4209 45.6671 24.4284C45.6938 24.4373 48.3643 25.3739 48.3643 28.7479V31.8235H41.6339H34.2577H33.1889C32.5254 31.8235 31.9895 32.3609 31.9895 33.0229C31.9895 33.6849 32.5269 34.2223 33.1889 34.2223H34.2577H41.6339H49.5637C50.2258 34.2223 50.7631 33.676 50.7631 33.014V28.7464C50.7631 23.8806 46.9511 22.3413 46.4746 22.1677L41.6933 20.2513V19.5819C42.9907 18.8189 43.9882 17.6002 44.4647 16.1455C46.2015 16.006 47.5731 14.5513 47.5731 12.779C47.5731 11.7251 47.0877 10.7825 46.3306 10.162V8.0468C46.3321 3.61 42.722 0 38.285 0H37.715C33.278 0 29.6693 3.61 29.6693 8.0468V10.1546C28.9049 10.7751 28.4135 11.7206 28.4135 12.7805C28.4135 14.5647 29.8059 16.0283 31.5605 16.1485ZM44.772 12.0739C44.815 12.0873 44.8596 12.0977 44.9056 12.1066C45.0718 12.2817 45.1743 12.5192 45.1743 12.779C45.1743 13.1026 45.0154 13.3905 44.772 13.5687V12.0739ZM39.2944 21.041L37.9733 22.4126L36.7308 21.2028V20.3894C36.9728 20.4176 37.2192 20.4339 37.4686 20.4339H38.5566C38.806 20.4339 39.0524 20.4176 39.2944 20.3894V21.041ZM42.3731 14.2203C42.3731 16.3237 40.6616 18.0352 38.5581 18.0352H37.47C35.3666 18.0352 33.6536 16.3237 33.6536 14.2203V11.0734C35.2078 10.9042 37.9525 10.358 40.0723 8.59305C40.5473 9.405 41.2806 10.2837 42.3731 10.7973V14.2203ZM32.0682 8.0468C32.0682 4.93406 34.6006 2.40023 37.715 2.40023H38.285C41.3979 2.40023 43.9318 4.93258 43.9318 8.0468V8.80531C43.911 8.79937 43.8902 8.79492 43.8694 8.78898C43.859 8.78602 43.8487 8.78305 43.8397 8.78008C42.1816 8.40305 41.6383 6.18687 41.6339 6.17055C41.53 5.71039 41.1663 5.35414 40.7046 5.25914C40.243 5.16414 39.7679 5.34969 39.4918 5.73117C37.3335 8.71477 32.518 8.74891 32.4586 8.74891C32.4571 8.74891 32.4556 8.74891 32.4541 8.74891C32.4126 8.74891 32.3725 8.75039 32.3324 8.75484C32.322 8.75633 32.3116 8.75781 32.3012 8.7593C32.2716 8.76375 32.2419 8.76672 32.2137 8.77266C32.1988 8.77563 32.184 8.78008 32.1691 8.78453C32.1454 8.79047 32.1216 8.79492 32.0994 8.80234C32.089 8.80531 32.0801 8.80977 32.0712 8.81273L32.0682 8.0468ZM31.0558 12.1363C31.1241 12.1259 31.1894 12.1095 31.2532 12.0888V13.5969C30.9875 13.4217 30.8138 13.1204 30.8138 12.779C30.8124 12.5326 30.9044 12.3084 31.0558 12.1363Z" fill="white"/>
<path d="M49.0427 4.16366C56.8003 6.7064 63.51 11.9062 67.9351 18.8055C68.1652 19.1633 68.5511 19.3577 68.946 19.3577C69.1671 19.3577 69.3928 19.2969 69.5932 19.1677C70.1513 18.81 70.3131 18.0678 69.9554 17.5097C65.2319 10.1457 58.071 4.59562 49.7908 1.88218C49.16 1.67585 48.4831 2.01874 48.2767 2.64812C48.0689 3.27898 48.4118 3.95733 49.0427 4.16366Z" fill="white"/>
<path d="M6.29994 19.1677C6.50033 19.2969 6.72448 19.3577 6.94715 19.3577C7.34201 19.3577 7.72945 19.1633 7.95805 18.8055C12.4351 11.826 19.2323 6.59656 27.0954 4.08351C27.7262 3.88164 28.0751 3.20625 27.8732 2.57539C27.6713 1.94453 26.9959 1.5957 26.365 1.79757C17.9705 4.48132 10.7161 10.0611 5.93773 17.5097C5.57999 18.0678 5.74179 18.81 6.29994 19.1677Z" fill="white"/>
<path d="M23.0948 70.3609C16.8884 67.5079 11.6543 62.9538 7.95805 57.19C7.6003 56.6319 6.85808 56.4701 6.29994 56.8278C5.74179 57.1855 5.57999 57.9277 5.93773 58.4859C9.88187 64.6356 15.4693 69.4969 22.0928 72.5414C22.2561 72.6156 22.4253 72.6512 22.5931 72.6512C23.0473 72.6512 23.4822 72.3915 23.6841 71.9521C23.9617 71.3494 23.6975 70.6384 23.0948 70.3609Z" fill="white"/>
<path d="M69.5932 56.8278C69.035 56.4701 68.2928 56.6319 67.9351 57.19C64.2908 62.8707 59.1428 67.3847 53.0432 70.2451C52.4435 70.5271 52.1852 71.2411 52.4658 71.8408C52.6692 72.2757 53.1026 72.531 53.5524 72.531C53.7231 72.531 53.8968 72.4939 54.0616 72.4167C60.5708 69.3648 66.0662 64.5466 69.9539 58.4844C70.3131 57.9277 70.1498 57.1855 69.5932 56.8278Z" fill="white"/>
<path d="M25.6376 53.9021V49.6345C25.6376 44.7702 21.8256 43.2295 21.3491 43.0558L16.5678 41.138V40.4685C17.8652 39.7056 18.8642 38.4869 19.3392 37.0322C21.076 36.8927 22.4476 35.438 22.4476 33.6656C22.4476 32.6117 21.9622 31.6691 21.2051 31.0487V28.932C21.2051 24.4952 17.595 20.8852 13.1595 20.8852H12.5895C8.15251 20.8852 4.54385 24.4952 4.54385 28.932V31.0398C3.77937 31.6602 3.28802 32.6058 3.28802 33.6656C3.28802 35.4513 4.68042 36.9134 6.43502 37.0352C6.91004 38.4884 7.90757 39.707 9.20497 40.47V41.132L4.29595 43.0543C3.84023 43.2176 0 44.7509 0 49.6345V53.9095C0 54.5731 0.537365 55.1104 1.19942 55.1104H4.24845C4.91199 55.1104 5.44787 54.5731 5.44787 53.911C5.44787 53.2475 4.9105 52.7116 4.24845 52.7116H2.40033V49.636C2.40033 46.3155 4.9966 45.3536 5.09754 45.3165C5.11536 45.3106 5.13465 45.3031 5.15247 45.2957L9.64733 43.5352L12.0358 45.8613C12.2599 46.0795 12.5598 46.2012 12.873 46.2012C12.8789 46.2012 12.8849 46.2012 12.8923 46.2012C13.2115 46.1967 13.5158 46.0646 13.7369 45.8345L15.9918 43.4937L20.4763 45.2927C20.4971 45.3017 20.5089 45.3061 20.5312 45.3135C20.641 45.3536 23.2373 46.3155 23.2373 49.636V52.7116H16.5069H9.13075H8.06196C7.39841 52.7116 6.86253 53.249 6.86253 53.911C6.86253 54.5731 7.3999 55.1104 8.06196 55.1104H9.13075H16.5069H24.4367C25.1003 55.1104 25.6376 54.5642 25.6376 53.9021ZM19.645 32.9606C19.688 32.9739 19.7326 32.9843 19.7786 32.9932C19.9448 33.1684 20.0473 33.4044 20.0473 33.6656C20.0473 33.9892 19.8884 34.2772 19.645 34.4553V32.9606ZM6.12477 34.4835C5.86054 34.3084 5.68538 34.007 5.68538 33.6656C5.68538 33.4192 5.77741 33.1936 5.92734 33.0214C5.99563 33.011 6.06094 32.9947 6.12477 32.9739V34.4835ZM7.32865 29.6356C7.32716 29.6356 7.32568 29.6356 7.32419 29.6356C7.28263 29.6356 7.24255 29.637 7.20247 29.6415C7.19208 29.643 7.18169 29.6445 7.1713 29.6459C7.14161 29.6489 7.1134 29.6534 7.08371 29.6593C7.06887 29.6623 7.05403 29.6667 7.03918 29.6712C7.01543 29.6771 6.99168 29.6816 6.96941 29.689C6.95902 29.692 6.95011 29.6964 6.94121 29.6994V28.932C6.94121 25.8177 9.47365 23.2854 12.588 23.2854H13.158C16.2709 23.2854 18.8048 25.8177 18.8048 28.932V29.689C18.784 29.6831 18.7632 29.6786 18.7425 29.6727C18.7321 29.6697 18.7217 29.6667 18.7113 29.6638C17.0532 29.2867 16.5099 27.0706 16.5054 27.0542C16.4015 26.5941 16.0378 26.2378 15.5762 26.1443C15.1145 26.0493 14.6395 26.2349 14.3634 26.6163C12.2035 29.6029 7.38951 29.6356 7.32865 29.6356ZM14.1659 41.9277L12.8448 43.2992L11.6023 42.0895V41.276C11.8443 41.3042 12.0907 41.3206 12.3401 41.3206H13.4282C13.6776 41.3206 13.924 41.3042 14.1659 41.276C14.1674 41.2775 14.1674 41.9277 14.1659 41.9277ZM13.4297 38.9218H12.3416C10.2381 38.9218 8.5251 37.2103 8.5251 35.107V31.9601C10.0793 31.7909 12.824 31.2446 14.9438 29.4797C15.4188 30.2931 16.1521 31.1689 17.2447 31.684V35.1084C17.2447 37.2103 15.5331 38.9218 13.4297 38.9218Z" fill="white"/>
<path d="M71.7115 43.0558L66.9301 41.138V40.4685C68.2275 39.7056 69.2251 38.4869 69.7016 37.0322C71.4383 36.8927 72.81 35.438 72.81 33.6656C72.81 32.6117 72.3245 31.6691 71.5675 31.0487V28.932C71.5675 24.4952 67.9573 20.8852 63.5219 20.8852H62.9504C58.5134 20.8852 54.9047 24.4952 54.9047 28.932V31.0398C54.1402 31.6602 53.6489 32.6058 53.6489 33.6656C53.6489 35.4513 55.0413 36.9134 56.7959 37.0352C57.2709 38.4884 58.2685 39.707 59.5658 40.47V41.132L54.6568 43.0543C54.2026 43.2176 50.3624 44.7509 50.3624 49.6345V53.9095C50.3624 54.5731 50.8997 55.1104 51.5618 55.1104H54.6108C55.2744 55.1104 55.8102 54.5731 55.8102 53.911C55.8102 53.2475 55.2729 52.7116 54.6108 52.7116H52.7612V49.636C52.7612 46.3155 55.3575 45.3536 55.4584 45.3165C55.4762 45.3106 55.4955 45.3031 55.5133 45.2957L60.0082 43.5352L62.3967 45.8613C62.6208 46.0795 62.9207 46.2012 63.2339 46.2012C63.2398 46.2012 63.2458 46.2012 63.2532 46.2012C63.5723 46.1967 63.8766 46.0646 64.0978 45.8345L66.3542 43.4937L70.8386 45.2927C70.8594 45.3017 70.8713 45.3061 70.8936 45.3135C71.0034 45.3536 73.5997 46.3155 73.5997 49.636V52.7116H66.8693H59.4931H58.4243C57.7608 52.7116 57.2249 53.249 57.2249 53.911C57.2249 54.5731 57.7623 55.1104 58.4243 55.1104H59.4931H66.8693H74.7991C75.4626 55.1104 75.9985 54.5656 75.9985 53.9021V49.6345C76 44.7702 72.188 43.2295 71.7115 43.0558ZM70.0073 32.9606C70.0504 32.9739 70.0949 32.9843 70.1409 32.9932C70.3072 33.1684 70.4096 33.4044 70.4096 33.6656C70.4096 33.9892 70.2508 34.2772 70.0073 34.4553V32.9606ZM56.4886 34.4835C56.2229 34.3084 56.0492 34.007 56.0492 33.6656C56.0492 33.4192 56.1413 33.1936 56.2927 33.0214C56.361 33.011 56.4263 32.9947 56.4901 32.9739V34.4835H56.4886ZM57.6925 29.6356C57.691 29.6356 57.6895 29.6356 57.688 29.6356C57.6465 29.6356 57.6064 29.637 57.5648 29.6415C57.5544 29.643 57.5441 29.6445 57.5337 29.6459C57.504 29.6489 57.4758 29.6534 57.4461 29.6593C57.4312 29.6623 57.4164 29.6667 57.4015 29.6712C57.3778 29.6771 57.354 29.6816 57.3318 29.689C57.3214 29.692 57.3125 29.6964 57.3036 29.6994V28.932C57.3036 25.8177 59.836 23.2854 62.9504 23.2854H63.5219C66.6347 23.2854 69.1686 25.8177 69.1686 28.932V29.689C69.1479 29.6831 69.1271 29.6786 69.1063 29.6727C69.0959 29.6697 69.0855 29.6667 69.0766 29.6638C67.4185 29.2867 66.8752 27.0706 66.8707 27.0542C66.7668 26.5941 66.4031 26.2378 65.9415 26.1443C65.4798 26.0493 65.0048 26.2349 64.7287 26.6163C62.5674 29.6029 57.7519 29.6356 57.6925 29.6356ZM64.5298 41.9277L63.2086 43.2992L61.9662 42.0895V41.276C62.2081 41.3042 62.4546 41.3206 62.7039 41.3206H63.792C64.0414 41.3206 64.2878 41.3042 64.5298 41.276V41.9277ZM63.792 38.9233H62.7039C60.6005 38.9233 58.8875 37.2118 58.8875 35.107V31.9601C60.4417 31.7909 63.1879 31.2431 65.3062 29.4797C65.7812 30.2931 66.5145 31.1689 67.607 31.684V35.1084C67.607 37.2118 65.8955 38.9233 63.792 38.9233Z" fill="white"/>
<path d="M46.4761 63.9454L41.6947 62.0276V61.3581C42.9921 60.5951 43.9897 59.3765 44.4662 57.9218C46.203 57.7823 47.5746 56.3276 47.5746 54.5552C47.5746 53.5013 47.0892 52.5587 46.3321 51.9383V49.8216C46.3321 45.3848 42.722 41.7747 38.2865 41.7747H37.7165C33.2795 41.7747 29.6708 45.3848 29.6708 49.8216V51.9294C28.9064 52.5498 28.415 53.4954 28.415 54.5552C28.415 56.3409 29.8074 57.803 31.562 57.9248C32.037 59.378 33.0346 60.5966 34.332 61.3596V62.0216L29.4229 63.9439C28.9687 64.1072 25.1285 65.6405 25.1285 70.5241V74.7991C25.1285 75.4626 25.6658 76 26.3279 76H29.3769C30.0405 76 30.5763 75.4626 30.5763 74.8006C30.5763 74.1386 30.039 73.6012 29.3769 73.6012H27.5273V70.5256C27.5273 67.2051 30.1236 66.2432 30.2245 66.2061C30.2423 66.2001 30.2616 66.1927 30.2795 66.1853L34.7743 64.4248L37.1628 66.7508C37.3869 66.9691 37.6868 67.0908 38 67.0908C38.0059 67.0908 38.0119 67.0908 38.0193 67.0908C38.3384 67.0863 38.6428 66.9542 38.8639 66.7241L41.1188 64.3833L45.6033 66.1823C45.624 66.1912 45.6359 66.1957 45.6582 66.2031C45.768 66.2432 48.3643 67.2051 48.3643 70.5256V73.6012H41.6339H34.2577H33.1889C32.5254 73.6012 31.9895 74.1386 31.9895 74.8006C31.9895 75.4626 32.5269 76 33.1889 76H34.2577H41.6339H49.5637C50.2258 76 50.7631 75.4552 50.7631 74.7917V70.5241C50.7646 65.6598 46.9541 64.1191 46.4761 63.9454ZM44.772 53.8516C44.815 53.865 44.8596 53.8754 44.9056 53.8843C45.0718 54.0594 45.1743 54.2955 45.1743 54.5567C45.1743 54.8803 45.0154 55.1683 44.772 55.3464V53.8516ZM31.2532 55.3731C30.9875 55.198 30.8139 54.8966 30.8139 54.5552C30.8139 54.3088 30.9059 54.0847 31.0558 53.911C31.1241 53.9006 31.1894 53.8843 31.2532 53.8635V55.3731ZM32.4571 50.5251C32.4556 50.5251 32.4542 50.5251 32.4527 50.5251C32.4111 50.5251 32.371 50.5266 32.3309 50.5311C32.3176 50.5326 32.3057 50.5355 32.2938 50.537C32.2671 50.54 32.2389 50.5444 32.2122 50.5489C32.1929 50.5519 32.1751 50.5578 32.1558 50.5637C32.1365 50.5682 32.1157 50.5726 32.0964 50.5786C32.086 50.5815 32.0771 50.586 32.0682 50.589V49.8216C32.0682 46.7088 34.6021 44.175 37.715 44.175H38.285C41.3979 44.175 43.9318 46.7073 43.9318 49.8216V50.5801C43.9125 50.5741 43.8917 50.5697 43.8724 50.5637C43.8605 50.5608 43.8501 50.5563 43.8397 50.5548C42.1816 50.1778 41.6383 47.9631 41.6339 47.9453C41.53 47.4851 41.1663 47.1289 40.7046 47.0354C40.243 46.9404 39.768 47.1259 39.4918 47.5074C37.332 50.4925 32.5165 50.5251 32.4571 50.5251ZM39.2944 62.8173L37.9733 64.1888L36.7308 62.979V62.1656C36.9728 62.1938 37.2192 62.2101 37.4686 62.2101H38.5567C38.806 62.2101 39.0525 62.1938 39.2944 62.1656V62.8173ZM38.5567 59.8129H37.4686C35.3651 59.8129 33.6521 58.1014 33.6521 55.998V52.8512C35.2063 52.6819 37.951 52.1357 40.0708 50.3708C40.5458 51.1842 41.2791 52.0615 42.3716 52.5751V55.9995C42.3731 58.1014 40.6616 59.8129 38.5567 59.8129Z" fill="white"/>
</svg>
