<svg width="81" height="76" viewBox="0 0 81 76" fill="none" xmlns="http://www.w3.org/2000/svg">
<path d="M74.2047 6.77014C64.8485 -2.61896 49.4063 -2.15172 40.4979 7.60676C31.5879 -2.15172 16.1473 -2.61896 6.79115 6.77014C-2.51435 16.0156 -2.19795 31.2405 7.38916 40.164C2.48486 44.838 5.29455 53.2374 11.9707 54.0551C11.5705 58.6154 15.4623 62.7986 20.0644 62.7212C20.346 67.7425 25.3974 71.3368 30.24 70.0093C31.8284 75.9919 39.4648 78.0361 43.8471 73.632C46.3356 71.1648 48.3147 69.6083 48.4397 65.8704C52.5514 65.7567 56.1094 62.1577 56.1711 58.0582C60.3223 57.9951 63.9389 54.385 64.0021 50.2445C68.3084 50.1798 72.042 46.3013 71.8427 41.9225L74.2047 39.5657C83.2665 30.5239 83.2665 15.812 74.2047 6.77014ZM10.9519 43.9383L13.1715 41.7236C13.7458 41.1506 14.4988 40.8649 15.2519 40.8649C17.8353 40.8475 19.1832 44.0345 17.3322 45.8735L15.1126 48.0882C12.2381 50.7275 8.30674 46.8049 10.9519 43.9383ZM17.1392 54.6091C17.1392 53.8246 17.4446 53.0874 18.0014 52.5334L20.221 50.3187C20.7763 49.7646 21.5151 49.46 22.2998 49.46C24.9054 49.4552 26.2248 52.6344 24.3802 54.4702L22.4216 56.4244C21.8236 57.1016 21.001 57.5594 20.0802 57.5452C18.4998 57.5768 17.106 56.1861 17.1392 54.6091ZM26.0935 64.2382C24.9529 63.1458 24.9529 61.1806 26.0935 60.0882L28.0521 58.134C29.1943 56.7812 31.1971 56.606 32.4723 57.8735C33.6192 59.018 33.6192 60.8791 32.4723 62.0235L30.2527 64.2382C29.1057 65.3826 27.2405 65.3826 26.0935 64.2382ZM42.3916 67.7551L40.172 69.9698C39.6167 70.5239 38.8779 70.8301 38.0916 70.8301C37.3054 70.8301 36.5666 70.5255 36.0113 69.9698C34.8706 68.8775 34.8706 66.9122 36.0113 65.8199L38.2293 63.6052C39.3762 62.4607 41.2415 62.4607 42.3884 63.6052C43.5338 64.6975 43.5338 66.6628 42.3916 67.7551ZM65.7898 44.2145C64.6951 45.3526 62.7254 45.3526 61.6307 44.2145L50.0739 32.6833L46.402 36.3471L57.9588 47.8783C59.1058 49.0227 59.1058 50.8838 57.9588 52.0282C56.8118 53.1727 54.9466 53.1727 53.7996 52.0282L42.4391 40.6928L42.2429 40.4971L38.571 44.1608L38.7672 44.3566L50.1277 55.692C51.2747 56.8364 51.2747 58.6975 50.1277 59.842C48.9808 60.9864 47.1155 60.9864 45.9686 59.842L45.967 59.8435C43.8566 57.8088 40.9077 57.1379 38.2451 57.8325C37.3971 54.3755 33.9151 51.7583 30.4125 51.8341C30.2432 48.1135 27.0902 44.7512 23.3645 44.3503C23.8565 37.9667 16.8291 33.5689 11.2841 36.7149C3.5559 29.8341 3.07971 17.7488 10.463 10.4339C17.8021 3.05901 29.9299 3.54836 36.826 11.2705L30.4061 17.6762L35.5509 22.8096C39.5028 26.7528 45.592 27.2958 50.1325 24.4371L65.7914 40.0614C66.9368 41.2074 66.9368 43.0701 65.7898 44.2145ZM70.5328 35.902L69.7417 36.6912C69.6516 36.5918 69.5582 36.4939 69.4633 36.3992L50.3366 17.3147L48.4998 19.1474C45.9417 21.6999 41.7809 21.6999 39.2228 19.1474L37.7499 17.6778L45.0099 10.4339C62.6416 -5.76024 86.7581 18.3187 70.5328 35.902Z" fill="black"/>
</svg>
