<?xml version="1.0" encoding="utf-8"?>
<!-- Generator: Adobe Illustrator 25.3.1, SVG Export Plug-In . SVG Version: 6.00 Build 0)  -->
<svg version="1.1" id="Layer_1" xmlns="http://www.w3.org/2000/svg" xmlns:xlink="http://www.w3.org/1999/xlink" x="0px" y="0px"
	 viewBox="0 0 81 76" style="enable-background:new 0 0 81 76;" xml:space="preserve">
<style type="text/css">
	.st0{fill:#FFFFFF;}
</style>
<path class="st0" d="M74.2,6.8c-9.4-9.4-24.8-8.9-33.7,0.8C31.6-2.2,16.1-2.6,6.8,6.8c-9.3,9.2-9,24.5,0.6,33.4
	C2.5,44.8,5.3,53.2,12,54.1c-0.4,4.6,3.5,8.7,8.1,8.7c0.3,5,5.3,8.6,10.2,7.3c1.6,6,9.2,8,13.6,3.6c2.5-2.5,4.5-4,4.6-7.8
	c4.1-0.1,7.7-3.7,7.7-7.8c4.2-0.1,7.8-3.7,7.8-7.8c4.3-0.1,8-3.9,7.8-8.3l2.4-2.4C83.3,30.5,83.3,15.8,74.2,6.8z M11,43.9l2.2-2.2
	c0.6-0.6,1.3-0.9,2.1-0.9c2.6,0,3.9,3.2,2.1,5l-2.2,2.2C12.2,50.7,8.3,46.8,11,43.9z M17.1,54.6c0-0.8,0.3-1.5,0.9-2.1l2.2-2.2
	c0.6-0.6,1.3-0.9,2.1-0.9c2.6,0,3.9,3.2,2.1,5l-2,2c-0.6,0.7-1.4,1.1-2.3,1.1C18.5,57.6,17.1,56.2,17.1,54.6z M26.1,64.2
	c-1.1-1.1-1.1-3.1,0-4.1l2-2c1.1-1.4,3.1-1.5,4.4-0.3c1.1,1.1,1.1,3,0,4.1l-2.2,2.2C29.1,65.4,27.2,65.4,26.1,64.2z M42.4,67.8
	L40.2,70c-0.6,0.6-1.3,0.9-2.1,0.9c-0.8,0-1.5-0.3-2.1-0.9c-1.1-1.1-1.1-3.1,0-4.1l2.2-2.2c1.1-1.1,3-1.1,4.2,0
	C43.5,64.7,43.5,66.7,42.4,67.8z M65.8,44.2c-1.1,1.1-3.1,1.1-4.2,0L50.1,32.7l-3.7,3.7L58,47.9c1.1,1.1,1.1,3,0,4.1
	c-1.1,1.1-3,1.1-4.2,0L42.4,40.7l-0.2-0.2l-3.7,3.7l0.2,0.2l11.4,11.3c1.1,1.1,1.1,3,0,4.1c-1.1,1.1-3,1.1-4.2,0l0,0
	c-2.1-2-5.1-2.7-7.7-2c-0.8-3.5-4.3-6.1-7.8-6c-0.2-3.7-3.3-7.1-7-7.5c0.5-6.4-6.5-10.8-12.1-7.6c-7.7-6.9-8.2-19-0.8-26.3
	c7.3-7.4,19.5-6.9,26.4,0.8l-6.4,6.4l5.1,5.1c4,3.9,10,4.5,14.6,1.6l15.7,15.6C66.9,41.2,66.9,43.1,65.8,44.2z M70.5,35.9l-0.8,0.8
	c-0.1-0.1-0.2-0.2-0.3-0.3L50.3,17.3l-1.8,1.8c-2.6,2.6-6.7,2.6-9.3,0l-1.5-1.5l7.3-7.2C62.6-5.8,86.8,18.3,70.5,35.9z"/>
</svg>
